<?xml version="1.0" encoding="UTF-8"?> <svg xmlns="http://www.w3.org/2000/svg" xmlns:xlink="http://www.w3.org/1999/xlink" version="1.1" id="Layer_1" x="0px" y="0px" viewBox="0 0 512 512" style="enable-background:new 0 0 512 512;" xml:space="preserve"> <style type="text/css"> .st0{fill:#EF4E29;} .st1{fill:#231F20;} .st2{fill:#FFFFFF;} </style> <g> <g> <path class="st0" d="M123.7,180.1c7.4,34.9,14.8,69.1,22.1,102.9c2.5-0.2,4.9-0.4,7.4-0.5c0,9.5-0.1,19.1-0.1,28.6 c-16.3,1.4-32.6,3-48.8,5.2c-1.6-9.6-3.4-19.3-5-29c-9.1,0.9-18.1,2-27.3,3c-1.9,10.4-3.6,20.8-5.5,31.4 c-16.2,2.6-32.3,5.5-48.5,8.7c0-10.9,0-21.7,0-32.6c2.6-0.5,5.2-0.8,7.7-1.2c7.6-39.7,15.3-78.2,23.1-115.8 C73.8,180.4,98.7,180.3,123.7,180.1 M95.3,260c-3.2-17.7-6.3-35.5-9.6-53.4c-3.3,18.1-6.7,36.5-10,55 C82.3,261.1,88.9,260.5,95.3,260"></path> </g> <g> <path class="st1" d="M7.9,342.5v-53.3l8.4-1.4c0.2,0,0.6-0.1,0.8-0.1c7-36.1,14.3-72.7,21.8-109l1.6-8l8.1-0.1 c24.9-0.2,49.9-0.5,74.8-0.6h8.2l1.6,8c6.6,31.1,13.5,62.9,20.4,94.4l9.5-0.6l-0.1,48.4l-9.1,0.9c-16,1.4-32.4,3-48.5,5.2 l-9.5,1.2l-1.6-9.4c-1.2-6.6-2.3-13.2-3.5-19.8c-3.5,0.4-7,0.8-10.4,1.2c-1.4,8-2.8,15.9-4.2,24l-1.3,7l-7.1,1.2 c-15.9,2.5-32.1,5.4-48,8.5L7.9,342.5z M28,306.4v11.7c10-1.9,19.9-3.6,29.7-5.3c1.4-8.2,2.8-16.3,4.2-24.4l1.3-7.4l7.4-0.9 c8.9-1.1,18-2.1,27.4-3l9.4-0.9l1.6,9.3c1.2,6.6,2.3,13.1,3.4,19.7c10.2-1.2,20.4-2.2,30.6-3.2v-8.5l-5.3,0.4l-1.9-8.5 c-6.9-31.6-13.8-63.6-20.5-95c-19.6,0.1-39,0.2-58.4,0.5c-7.4,35.9-14.6,72.2-21.4,107.8l-1.3,6.9L28,306.4z M63.7,272.9l2.3-13 c3.3-18.5,6.7-36.9,10-55.2h19.8c3.2,17.9,6.3,35.7,9.6,53.4l2,10.9l-11,0.9c-6.4,0.5-12.9,1.1-19.4,1.6L63.7,272.9z"></path> </g> <g> <path class="st0" d="M288.3,179.9c0,9.3,0,18.5,0,27.8c-2.5,0-4.9,0-7.4,0c0,20.5,0,40.9,0.1,61.4c0,12.4,0.2,16-12.6,26.1 c-14.6,11.6-18.3,11.6-31.6,11.8c-10.3,0.1-20.5,0.5-30.8,0.8c-7.6,0.4-10.4,0.2-13.3-0.1c-8.3-1.8-22.6-12.8-26.5-17.1 c-3.9-4.7-4.1-6.2-4.1-17.4c0.1-21.5,0.1-43.1,0.2-64.6c-2.5,0-4.9,0.1-7.4,0.1c0-9.5,0.1-19,0.1-28.6c18-0.1,36.1-0.1,54-0.2 c0,28.6-0.1,57-0.1,85.6c0,1.5,0,3,0,4.6c0.2,3.4,0.6,10,12.6,9.6c12.6-0.2,12.9-6.3,12.9-14.6c0-28.3,0-56.8,0.1-85.1 C252.5,179.8,270.4,179.8,288.3,179.9"></path> </g> <g> <path class="st1" d="M198.3,318c-2.7,0-4.8-0.1-6.9-0.5l-0.7-0.1c-11.2-2.3-27.5-15.2-32-20.3l-0.2-0.4 c-6.1-7.4-6.4-11.6-6.3-23.9l0.2-54.3l-7.4,0.1l0.1-48.8h10c18-0.1,36.1-0.1,54.1-0.2h10.1l-0.2,99.9c0.6,0.1,1.3,0.1,2.3,0.1 c1.4,0,2.3-0.1,2.9-0.2c0.1-1.3,0.1-3.2,0.1-4.3l0.1-95.1h10.1c17.9,0,35.8,0,53.9,0h10.1l0.1,47.9h-7.4v51.9 c0,15.1-1.3,21.5-16.4,33.4c-16.4,13-22.5,13.7-37.6,13.9c-10,0.1-20.3,0.5-30.6,0.8C203.1,317.9,200.5,318,198.3,318z M194.5,297.7c1.8,0.2,4.1,0.2,11.1,0c10.5-0.5,21-0.7,31-0.9c12.4-0.1,13.7-0.2,25.5-9.6c8.8-6.9,8.8-6.9,8.8-17.6l-0.1-72.1h7.4 v-7.6c-11.2,0-22.5,0-33.7,0l-0.1,75.1c0,7.3,0,24.2-22.7,24.7c-6.6,0.1-21.8-1.4-22.8-19.1V270l0.1-80c-11.4,0-22.6,0.1-34,0.1 v8.3l7.4-0.1l-0.2,74.9c0,8.5,0,8.8,1.6,10.9C177.3,287.7,189.3,296.3,194.5,297.7z"></path> </g> <g> <path class="st0" d="M493.9,181.2c0,10.9,0,21.7,0,32.6c-2.5-0.1-4.9-0.2-7.4-0.4c0,27.8,0.1,55.5,0.1,83.3 c2.5,0.4,4.9,0.7,7.3,1.2c0,10.9,0,21.7,0,32.6c-16.9-3.4-33.8-6.4-50.8-9c0.5-36.5,0.9-73.2,1.4-109.8 c-9.8,36.3-19.6,71.4-29.3,105.7c-11.2-1.5-22.6-2.8-33.8-4c-10.1-36.1-20.3-71.2-30.3-105.7c0.8,34.3,1.6,68.7,2.6,103.3 c-17.1-1.4-34.1-2.3-51.2-3c0-9.3,0-18.6,0-27.9c2.5,0.1,4.9,0.1,7.4,0.2c0-24-0.1-48.1-0.1-72.1c-2.5,0-4.9-0.1-7.4-0.1 c0-9.3,0-18.6,0-27.9c26.5,0,52.9,0.1,79.4,0.4c5.6,27.8,11.2,56,16.9,84.4c5.5-27.8,10.9-55.7,16.4-84.3 C441.2,180.6,467.6,180.9,493.9,181.2"></path> </g> <g> <path class="st1" d="M504.1,342.5l-12.1-2.5c-16.7-3.3-33.6-6.3-50.5-9l-8.5-1.3l0.6-40.3c-2.8,10.2-5.7,20.4-8.5,30.4l-2.3,8.3 l-8.5-1.2c-11.2-1.5-22.5-2.8-33.6-4l-6.8-0.7l-1.9-6.6c-2.8-10.2-5.7-20.4-8.8-30.9c0.2,8.4,0.5,17,0.6,25.4l0.2,11.1l-11.1-0.9 c-16.6-1.4-33.7-2.3-50.8-3l-9.6-0.4l-0.1-47.9l7.4,0.2l-0.1-51.9l-7.4-0.1v-10c0-9.3,0-18.6,0-27.9v-10.1h10.1 c26.5,0,52.9,0.1,79.4,0.4h8.2l1.6,8c2.3,11.7,4.7,23.2,6.9,34.4c2.2-11.5,4.4-22.8,6.6-34.1l1.5-8.2l8.3,0.1 c26.3,0.2,52.8,0.5,79.2,0.8l10,0.1v53l-7.4-0.4l0.1,64.1l7.3,1.2L504.1,342.5z M453.4,312.7c10.2,1.6,20.5,3.5,30.7,5.4v-11.7 l-7.3-1.2l-0.2-102.5l7.4,0.4v-12.1c-20.3-0.2-40.5-0.5-60.8-0.6c-4.7,24.6-9.6,49.5-14.8,76.1h-19.7 c-4.9-24.8-9.8-49.9-15.2-76.5c-20.4-0.1-40.7-0.2-61.1-0.2c0,2.6,0,5.3,0,7.8l7.4,0.1l0.2,92.5l-7.4-0.2v7.8 c10.3,0.5,20.6,1.1,30.8,1.8c-0.7-30.8-1.5-61.5-2.2-92.2l19.7-3c10.4,35.7,19.8,68.3,28.6,99.3c6.2,0.7,12.4,1.4,18.7,2.2 c9.1-32.2,18.1-64.9,26.9-97.3l19.8,2.7L453.4,312.7z"></path> </g> <g> <path class="st0" d="M123.7,180.1c7.4,34.9,14.8,69.1,22.1,102.9c2.5-0.2,4.9-0.4,7.4-0.5c0,9.5-0.1,19.1-0.1,28.6 c-16.3,1.4-32.6,3-48.8,5.2c-1.6-9.6-3.4-19.3-5-29c-9.1,0.9-18.1,2-27.3,3c-1.9,10.4-3.6,20.8-5.5,31.4 c-16.2,2.6-32.3,5.5-48.5,8.7c0-10.9,0-21.7,0-32.6c2.6-0.5,5.2-0.8,7.7-1.2c7.6-39.7,15.3-78.2,23.1-115.8 C73.8,180.4,98.7,180.3,123.7,180.1 M95.3,260c-3.2-17.7-6.3-35.5-9.6-53.4c-3.3,18.1-6.7,36.5-10,55 C82.3,261.1,88.9,260.5,95.3,260"></path> </g> <g> <path class="st2" d="M10.8,339v-47.4l6.1-0.9c0.9-0.1,1.9-0.4,2.8-0.5c7.1-36.8,14.5-74,22.1-111l1.2-5.6h5.7 c24.9-0.2,49.9-0.5,74.8-0.6h5.9l1.2,5.7c6.8,32,13.8,64.5,20.8,96.8c0.5,0,0.8,0,1.3-0.1l7.7-0.5l-0.1,42.9l-6.6,0.6 c-16.2,1.4-32.4,3-48.6,5.2l-6.8,0.8l-1.2-6.7c-1.3-7.5-2.6-15-4-22.5c-5.2,0.6-10.2,1.2-15.2,1.8c-1.5,8.7-3,17.3-4.6,26.1 l-0.9,5l-5,0.8c-15.9,2.5-32.1,5.4-48.1,8.7L10.8,339z M25.1,304v17.7c11.7-2.2,23.4-4.3,35.1-6.2c1.5-8.8,3-17.7,4.6-26.3 l0.9-5.3l5.3-0.6c8.9-1.1,18-2.1,27.4-3l6.7-0.7l1.2,6.6c1.3,7.5,2.6,15,3.9,22.4c11.9-1.4,23.9-2.7,35.8-3.7v-14.3l-5.9,0.5 l-1.3-6.1c-7.1-32.4-14.2-65.1-21-97.3c-21.1,0.1-42.2,0.4-63.1,0.5c-7.5,36.7-14.9,73.8-21.9,110.1l-0.9,4.9l-5,0.8 C26.3,303.7,25.7,303.8,25.1,304z M67.1,269.6l1.6-9.3c3.3-18.5,6.7-36.9,10-55.2h14.2c3.2,17.9,6.3,35.7,9.6,53.4l1.4,7.8l-8,0.7 c-6.4,0.5-13,1.1-19.4,1.6L67.1,269.6z M85.7,247.2c-0.4,2.2-0.8,4.3-1.2,6.6c0.8-0.1,1.5-0.1,2.3-0.2 C86.6,251.4,86.1,249.3,85.7,247.2z"></path> </g> <g> <path class="st0" d="M288.3,179.9c0,9.3,0,18.5,0,27.8c-2.5,0-4.9,0-7.4,0c0,20.5,0,40.9,0.1,61.4c0,12.4,0.2,16-12.6,26.1 c-14.6,11.6-18.3,11.6-31.6,11.8c-10.2,0.1-20.5,0.5-30.8,0.8c-7.6,0.4-10.4,0.2-13.3-0.1c-8.3-1.8-22.6-12.8-26.5-17.1 c-3.9-4.7-4.1-6.2-4.1-17.4c0.1-21.5,0.1-43.1,0.2-64.6c-2.5,0-4.9,0.1-7.4,0.1c0-9.5,0.1-19,0.1-28.6c18-0.1,36.1-0.1,54-0.2 c0,28.6-0.1,57-0.1,85.6c0,1.5,0,3,0,4.6c0.2,3.4,0.6,10,12.6,9.6c12.6-0.2,12.9-6.3,12.9-14.6c0-28.3,0-56.8,0.1-85.1 C252.5,179.8,270.4,179.8,288.3,179.9"></path> </g> <g> <path class="st2" d="M198.2,315.2c-2.7,0-4.6-0.1-6.4-0.4l-0.5-0.1c-10.7-2.2-26.1-14.6-30.3-19.3l-0.2-0.2 c-5.5-6.7-5.7-10.3-5.7-22l0.2-57.3l0,0l-7.4,0.1l0.1-43h7.1c18-0.1,36.1-0.1,54.1-0.2h7.3l-0.2,97.1c0,0.6,0.1,1.6,0.4,1.9 s1.6,0.8,4.9,0.7c4.2-0.1,5.3-0.9,5.3-0.9c0.6-0.7,0.6-4.8,0.6-6.6l0.1-92.3h7.1c17.9,0,35.8,0,53.9,0h7.1v42.2h-7.4v54.8 c0,13.6-0.6,19.6-15.3,31.1c-15.7,12.4-21.1,13.1-35.8,13.3c-10,0.1-20.3,0.5-30.7,0.8C202.8,315.1,200.3,315.2,198.2,315.2z M194.1,300.6c2,0.2,4.3,0.4,11.7,0c10.5-0.5,21-0.7,30.9-0.9c12.6-0.1,14.6-0.2,27.3-10.2c10-7.8,10-8.7,10-19.8l-0.1-69.2h7.4 v-13.3c-13.1,0-26.3,0-39.5,0l-0.1,77.9c0,7.5,0,21.4-19.9,21.8c-8.5,0.2-19.1-2.5-19.9-16.4v-0.2v-4.8l0.1-78.3 c-13.2,0-26.5,0.1-39.7,0.1v14.1l0,0l7.4-0.1l-0.2,71.9c0,9.7,0,9.8,2.3,12.8C175.3,289.8,188,299.1,194.1,300.6z"></path> </g> <g> <path class="st0" d="M493.9,181.2c0,10.9,0,21.7,0,32.6c-2.5-0.1-4.9-0.2-7.4-0.4c0,27.8,0.1,55.5,0.1,83.3 c2.5,0.4,4.9,0.7,7.4,1.2c0,10.9,0,21.7,0,32.6c-16.9-3.4-33.8-6.4-50.8-9c0.5-36.5,0.9-73.2,1.4-109.8 c-9.8,36.3-19.6,71.4-29.3,105.7c-11.2-1.5-22.5-2.8-33.8-4c-10.1-36.1-20.3-71.2-30.3-105.7c0.8,34.3,1.6,68.7,2.6,103.3 c-17.1-1.4-34.1-2.3-51.2-3c0-9.3,0-18.6,0-27.9c2.5,0.1,4.9,0.1,7.4,0.2c0-24-0.1-48.1-0.1-72.1c-2.5,0-4.9-0.1-7.4-0.1 c0-9.3,0-18.6,0-27.9c26.5,0,52.9,0.1,79.4,0.4c5.6,27.8,11.2,56,16.9,84.4c5.5-27.8,10.9-55.7,16.4-84.3 C441.2,180.6,467.6,180.9,493.9,181.2"></path> </g> <g> <path class="st2" d="M501.2,339l-8.5-1.8c-16.7-3.4-33.7-6.3-50.6-9l-6.1-0.9l0.7-59.8c-4.8,17.3-9.6,34.7-14.5,51.6l-1.6,6 l-6.1-0.8c-11-1.4-22.2-2.8-33.6-4l-4.8-0.5l-1.3-4.7c-4.8-17.1-9.7-34.5-14.9-52.6l1.4,55.9l-8-0.6c-16.7-1.4-33.8-2.3-50.9-3 l-6.9-0.2l-0.1-42.2l7.4,0.2l-0.2-57.6l-7.4-0.1l-0.1-42.2h7.3c26.5,0,52.9,0.1,79.4,0.4h5.9l1.2,5.7c3.4,16.9,6.7,33,9.7,48.7 c3.2-16.4,6.3-32.6,9.4-48.5l1.2-5.9h6c26.3,0.2,52.8,0.5,79.2,0.8l7.1,0.1v47.2l-7.4-0.4l0.1,69.6c0.5,0.1,0.8,0.1,1.3,0.2 l6.1,0.9v6.1c0,10.9,0,21.7,0,32.6L501.2,339z M450.5,315.1c12.2,2,24.4,4.1,36.4,6.4c0-5.9,0-11.7,0-17.7 c-0.5-0.1-0.8-0.1-1.3-0.2l-6.1-0.9l-0.1-97l7.4,0.4v-17.9c-22-0.2-44-0.5-66-0.6c-4.9,25.5-10.1,51.9-15.2,78.5h-14.1 c-4.9-25.2-10.1-51.1-15.7-78.7c-22.1-0.1-44.3-0.2-66.3-0.2v13.6l7.4,0.1l0.2,86.7l-7.4-0.2v13.6c12.3,0.6,24.6,1.3,36.7,2.1 l-2.3-95.3l14.1-2.2c10.5,35.9,20,69.1,29,101.2c7.7,0.8,15.5,1.8,23.1,2.7c9.3-32.8,18.6-66.4,27.6-99.8l14.1,2L450.5,315.1z"></path> </g> <g> <path class="st0" d="M123.7,180.1c7.4,34.9,14.8,69.1,22.1,102.9c2.5-0.2,4.9-0.4,7.4-0.5c0,9.5-0.1,19.1-0.1,28.6 c-16.3,1.4-32.6,3-48.8,5.2c-1.6-9.6-3.4-19.3-5-29c-9.1,0.9-18.1,2-27.3,3c-1.9,10.4-3.6,20.8-5.5,31.4 c-16.2,2.6-32.3,5.5-48.5,8.7c0-10.9,0-21.7,0-32.6c2.6-0.5,5.2-0.8,7.7-1.2c7.6-39.7,15.3-78.2,23.1-115.8 C73.8,180.4,98.7,180.3,123.7,180.1 M95.3,260c-3.2-17.7-6.3-35.5-9.6-53.4c-3.3,18.1-6.7,36.5-10,55 C82.3,261.1,88.9,260.5,95.3,260"></path> </g> <g> <path class="st0" d="M288.3,179.9c0,9.3,0,18.5,0,27.8c-2.5,0-4.9,0-7.4,0c0,20.5,0,40.9,0.1,61.4c0,12.4,0.2,16-12.6,26.1 c-14.6,11.6-18.3,11.6-31.6,11.8c-10.3,0.1-20.5,0.5-30.8,0.8c-7.6,0.4-10.4,0.2-13.3-0.1c-8.3-1.8-22.6-12.8-26.5-17.1 c-3.9-4.7-4.1-6.2-4.1-17.4c0.1-21.5,0.1-43.1,0.2-64.6c-2.5,0-4.9,0.1-7.4,0.1c0-9.5,0.1-19,0.1-28.6c18-0.1,36.1-0.1,54-0.2 c0,28.6-0.1,57-0.1,85.6c0,1.5,0,3,0,4.6c0.2,3.4,0.6,10,12.6,9.6c12.6-0.2,12.9-6.3,12.9-14.6c0-28.3,0-56.8,0.1-85.1 C252.5,179.8,270.4,179.8,288.3,179.9"></path> </g> <g> <path class="st0" d="M493.9,181.2c0,10.9,0,21.7,0,32.6c-2.5-0.1-4.9-0.2-7.4-0.4c0,27.8,0.1,55.5,0.1,83.3 c2.5,0.4,4.9,0.7,7.3,1.2c0,10.9,0,21.7,0,32.6c-16.9-3.4-33.8-6.4-50.8-9c0.5-36.5,0.9-73.2,1.4-109.8 c-9.8,36.3-19.6,71.4-29.3,105.7c-11.2-1.5-22.6-2.8-33.8-4c-10.1-36.1-20.3-71.2-30.3-105.7c0.8,34.3,1.6,68.7,2.6,103.3 c-17.1-1.4-34.1-2.3-51.2-3c0-9.3,0-18.6,0-27.9c2.5,0.1,4.9,0.1,7.4,0.2c0-24-0.1-48.1-0.1-72.1c-2.5,0-4.9-0.1-7.4-0.1 c0-9.3,0-18.6,0-27.9c26.5,0,52.9,0.1,79.4,0.4c5.6,27.8,11.2,56,16.9,84.4c5.5-27.8,10.9-55.7,16.4-84.3 C441.2,180.6,467.6,180.9,493.9,181.2"></path> </g> </g> </svg> 